<svg width="16" height="122" viewBox="0 0 16 122" fill="none" xmlns="http://www.w3.org/2000/svg">
<path d="M15.2114 114.224C15.094 114.116 14.9542 114.029 14.8003 113.971C14.6464 113.912 14.4813 113.881 14.3145 113.881C14.1478 113.881 13.9826 113.912 13.8287 113.971C13.6748 114.029 13.5351 114.116 13.4176 114.224L9.26169 118.048V109.253C9.26169 108.945 9.1286 108.651 8.8917 108.433C8.6548 108.216 8.3335 108.094 7.99848 108.094C7.66345 108.094 7.34215 108.216 7.10525 108.433C6.86836 108.651 6.73527 108.945 6.73527 109.253V118.048L2.57932 114.224C2.34145 114.006 2.01883 113.883 1.68244 113.883C1.34604 113.883 1.02343 114.006 0.785561 114.224C0.547695 114.442 0.414062 114.738 0.414062 115.047C0.414062 115.356 0.547695 115.652 0.785561 115.87L7.1016 121.664C7.22174 121.77 7.3634 121.852 7.51846 121.908C7.66966 121.969 7.83316 122 7.99848 122C8.16379 122 8.32729 121.969 8.4785 121.908C8.63356 121.852 8.77522 121.77 8.89536 121.664L15.2114 115.87C15.3298 115.762 15.4238 115.634 15.4879 115.493C15.552 115.351 15.585 115.2 15.585 115.047C15.585 114.894 15.552 114.743 15.4879 114.601C15.4238 114.46 15.3298 114.332 15.2114 114.224Z" fill="#222222"/>
<rect x="6.73438" width="2.5285" height="113.15" fill="#222222"/>
</svg>
