<svg width="24" height="193" viewBox="0 0 24 193" fill="none" xmlns="http://www.w3.org/2000/svg">
<path d="M23.4089 180.698C23.2231 180.526 23.0021 180.39 22.7586 180.297C22.5151 180.204 22.2539 180.156 21.9901 180.156C21.7263 180.156 21.4651 180.204 21.2215 180.297C20.978 180.39 20.757 180.526 20.5712 180.698L13.9966 186.748V172.833C13.9966 172.347 13.7861 171.881 13.4113 171.537C13.0366 171.193 12.5283 171 11.9983 171C11.4683 171 10.96 171.193 10.5852 171.537C10.2105 171.881 9.99994 172.347 9.99994 172.833V186.748L3.42536 180.698C3.04906 180.353 2.53869 180.159 2.00653 180.159C1.47437 180.159 0.963996 180.353 0.587699 180.698C0.211402 181.043 0 181.512 0 182C0 182.488 0.211402 182.956 0.587699 183.301L10.5795 192.468C10.7695 192.635 10.9936 192.766 11.2389 192.853C11.4781 192.95 11.7368 193 11.9983 193C12.2598 193 12.5185 192.95 12.7577 192.853C13.003 192.766 13.2271 192.635 13.4171 192.468L23.4089 183.301C23.5962 183.131 23.7449 182.928 23.8463 182.705C23.9478 182.481 24 182.242 24 182C24 181.758 23.9478 181.518 23.8463 181.295C23.7449 181.071 23.5962 180.869 23.4089 180.698Z" fill="#222222"/>
<rect x="10" width="4" height="179" fill="#222222"/>
</svg>
